<svg width="17" height="16" viewBox="0 0 17 16" fill="none" xmlns="http://www.w3.org/2000/svg">
<path d="M8.8571 1.33398C5.18376 1.33398 2.19043 4.32732 2.19043 8.00065C2.19043 11.674 5.18376 14.6673 8.8571 14.6673C12.5304 14.6673 15.5238 11.674 15.5238 8.00065C15.5238 4.32732 12.5304 1.33398 8.8571 1.33398ZM11.0971 9.53399C11.2904 9.72732 11.2904 10.0473 11.0971 10.2407C10.9971 10.3407 10.8704 10.3873 10.7438 10.3873C10.6171 10.3873 10.4904 10.3407 10.3904 10.2407L8.8571 8.70732L7.32376 10.2407C7.22376 10.3407 7.0971 10.3873 6.97043 10.3873C6.84376 10.3873 6.7171 10.3407 6.6171 10.2407C6.42376 10.0473 6.42376 9.72732 6.6171 9.53399L8.15043 8.00065L6.6171 6.46732C6.42376 6.27398 6.42376 5.95398 6.6171 5.76065C6.81043 5.56732 7.13043 5.56732 7.32376 5.76065L8.8571 7.29398L10.3904 5.76065C10.5838 5.56732 10.9038 5.56732 11.0971 5.76065C11.2904 5.95398 11.2904 6.27398 11.0971 6.46732L9.56376 8.00065L11.0971 9.53399Z" fill="#CF6679"/>
</svg>
