<svg width="101" height="100" viewBox="0 0 101 100" fill="none" xmlns="http://www.w3.org/2000/svg">
<g id="Frame 1321318548" clip-path="url(#clip0_2338_5022)">
<g id="Circle">
<path id="Ellipse 68" d="M73.3267 92.2237C81.5467 87.7796 88.2908 81.0329 92.7317 72.8113L50.4988 49.9994L73.3267 92.2237Z" fill="#1FC16B" fill-opacity="0.4"/>
<path id="Ellipse 69" d="M25.345 90.8804C33.3036 95.7771 42.5185 98.2443 51.8591 97.9794L50.4982 49.9987L25.345 90.8804Z" fill="#1FC16B" fill-opacity="0.4"/>
<path id="Ellipse 70" d="M2.51704 48.6562C2.25569 57.997 4.72643 67.2109 9.62618 75.1677L50.4983 49.9988L2.51704 48.6562Z" fill="#1FC16B" fill-opacity="0.4"/>
<path id="Ellipse 71" d="M27.6706 7.77537C19.4506 12.2194 12.7065 18.9661 8.26563 27.1878L50.4986 49.9996L27.6706 7.77537Z" fill="#1FC16B" fill-opacity="0.4"/>
<path id="Ellipse 72" d="M75.6523 9.11863C67.6937 4.22192 58.4788 1.7547 49.1382 2.01962L50.4991 50.0003L75.6523 9.11863Z" fill="#1FC16B" fill-opacity="0.4"/>
<path id="Ellipse 73" d="M98.4803 51.3428C98.7416 42.002 96.2709 32.7881 91.3711 24.8314L50.4991 50.0003L98.4803 51.3428Z" fill="#1FC16B" fill-opacity="0.4"/>
</g>
<g id="Turbo Character">
<g id="Group 5026">
<g id="Group 5039">
<rect id="Rectangle 729" width="8.16568" height="40.6301" rx="4.08284" transform="matrix(0.496719 -0.867911 -0.867911 -0.49672 42.0129 78.1985)" fill="white"/>
<g id="Group 5035">
<path id="Vector 2997" d="M11.5497 36.1379C9.68975 37.6934 10.7747 41.3952 11.5497 43.0516L15.1427 47.1565C16.0586 46.7244 18.313 44.7799 20.0038 40.4588C21.6947 36.1378 19.2993 34.7695 17.8903 34.6255C16.5517 34.4815 13.4096 34.5823 11.5497 36.1379Z" fill="white"/>
<path id="Vector 2996" d="M17.2741 43.6073C14.5214 40.9209 7.83383 42.488 4.83414 43.6073L4.56907 43.8656C4.03972 46.1903 3.19312 52.8545 2.98138 57.814C2.7167 64.0133 11.9805 63.4967 17.2741 63.4967C22.5676 63.4967 20.7149 46.9653 17.2741 43.6073Z" fill="#ECE7E7"/>
</g>
</g>
<rect id="Rectangle 730" width="6.45153" height="32.3016" rx="3.22577" transform="matrix(-0.851565 -0.52425 -0.52425 0.851564 51.9719 93.6223)" fill="white"/>
<path id="Rectangle 731" d="M58.8417 98.6994C59.1791 97.9627 59.8279 97.4152 60.6108 97.2064C62.7253 96.6424 64.6043 98.6831 63.868 100.744L59.8787 111.91C59.545 112.844 59.3745 113.828 59.3745 114.82L59.3745 125.483C59.3745 128.001 56.5381 129.474 54.4782 128.027C53.7235 127.496 53.2432 126.658 53.1674 125.739L52.4446 116.972C52.2472 114.579 52.6689 112.174 53.6691 109.991L58.8417 98.6994Z" fill="white"/>
<path id="Ellipse 2" d="M30.1655 49.4888C39.2602 32.6093 60.3167 26.2986 77.1963 35.3931C94.0757 44.4878 100.387 65.5435 91.2924 82.423C82.1979 99.3027 61.1417 105.614 44.262 96.52C27.3823 87.4254 21.071 66.3685 30.1655 49.4888Z" fill="#99D0FF" stroke="#779AC7"/>
<path id="Vector 2998" d="M48.5002 48.5C50.8336 49.8333 55.7002 53.3 56.5002 56.5C57.3002 59.7 49.1669 58.5 45.0002 57.5" stroke="#192A3D" stroke-width="4" stroke-linecap="round"/>
<g id="Group 5028">
<ellipse id="Ellipse 34" cx="57.0224" cy="28.5264" rx="6.45941" ry="6.5354" fill="#FFCD6C"/>
<ellipse id="Ellipse 35" cx="80.7375" cy="33.417" rx="6.45941" ry="6.5354" fill="#FFCD6C"/>
<ellipse id="Ellipse 36" cx="70.1643" cy="27.5434" rx="10.1252" ry="10.2443" fill="#FFCD6C"/>
</g>
<rect id="Rectangle 728" x="77.7505" y="89.1921" width="6.81436" height="21.4035" rx="3.40718" transform="rotate(-39.5962 77.7505 89.1921)" fill="white"/>
<g id="Group 5027">
<path id="Ellipse 32" d="M77.0656 65.2354C78.1047 65.4756 79.1652 64.8226 79.1684 63.7561C79.1731 62.1474 78.727 60.5557 77.8614 59.1693C76.6517 57.232 74.722 55.8546 72.4968 55.3401C70.2715 54.8255 67.933 55.216 65.9957 56.4257C64.6094 57.2913 63.5098 58.5256 62.8079 59.9731C62.3426 60.9327 63.0088 61.9851 64.0479 62.2253C65.0869 62.4656 66.0981 61.7769 66.7297 60.9175C67.0826 60.4374 67.526 60.0234 68.0412 59.7016C69.1097 59.0345 70.3994 58.8191 71.6267 59.1029C72.854 59.3867 73.9183 60.1464 74.5854 61.2148C74.9071 61.7301 75.1238 62.2967 75.2301 62.883C75.4203 63.9324 76.0265 64.9951 77.0656 65.2354Z" fill="#192A3D"/>
<path id="Ellipse 33" d="M67.9501 67.0544C69.2393 67.3011 70.2278 68.3893 69.8428 69.3839C69.2619 70.884 68.1657 72.1643 66.6593 73.0634C64.5542 74.3198 61.8204 74.7289 59.0593 74.2007C56.2982 73.6725 53.736 72.2502 51.9364 70.2467C50.6486 68.8131 49.8268 67.1659 49.5426 65.5002C49.3542 64.396 50.5083 63.7176 51.7976 63.9643C53.0869 64.211 54.0053 65.31 54.4225 66.3962C54.6556 67.003 55.0175 67.5893 55.4961 68.1221C56.4887 69.2271 57.9018 70.0115 59.4246 70.3028C60.9474 70.5942 62.4552 70.3685 63.6162 69.6756C64.176 69.3414 64.6332 68.9118 64.9698 68.414C65.5724 67.5229 66.6608 66.8078 67.9501 67.0544Z" fill="#192A3D"/>
</g>
</g>
</g>
</g>
<defs>
<clipPath id="clip0_2338_5022">
<rect width="100" height="100" fill="white" transform="translate(0.5)"/>
</clipPath>
</defs>
</svg>
