<svg width="17" height="16" viewBox="0 0 17 16" fill="none" xmlns="http://www.w3.org/2000/svg">
<path d="M15.3636 10.614L11.0969 2.93398C10.5236 1.90065 9.73025 1.33398 8.85692 1.33398C7.98358 1.33398 7.19025 1.90065 6.61692 2.93398L2.35025 10.614C1.81025 11.594 1.75025 12.534 2.18359 13.274C2.61692 14.014 3.47025 14.4207 4.59025 14.4207H13.1236C14.2436 14.4207 15.0969 14.014 15.5303 13.274C15.9636 12.534 15.9036 11.5873 15.3636 10.614ZM8.35692 6.00065C8.35692 5.72732 8.58358 5.50065 8.85692 5.50065C9.13025 5.50065 9.35692 5.72732 9.35692 6.00065V9.33398C9.35692 9.60732 9.13025 9.83398 8.85692 9.83398C8.58358 9.83398 8.35692 9.60732 8.35692 9.33398V6.00065ZM9.33025 11.8073C9.29692 11.834 9.26358 11.8607 9.23025 11.8873C9.19025 11.914 9.15025 11.934 9.11025 11.9473C9.07025 11.9673 9.03025 11.9807 8.98358 11.9873C8.94358 11.994 8.89692 12.0007 8.85692 12.0007C8.81692 12.0007 8.77025 11.994 8.72358 11.9873C8.68358 11.9807 8.64358 11.9673 8.60358 11.9473C8.56358 11.934 8.52358 11.914 8.48358 11.8873C8.45025 11.8607 8.41692 11.834 8.38358 11.8073C8.26358 11.6807 8.19025 11.5073 8.19025 11.334C8.19025 11.1607 8.26358 10.9873 8.38358 10.8607C8.41692 10.834 8.45025 10.8073 8.48358 10.7807C8.52358 10.754 8.56358 10.734 8.60358 10.7207C8.64358 10.7007 8.68358 10.6873 8.72358 10.6807C8.81025 10.6607 8.90358 10.6607 8.98358 10.6807C9.03025 10.6873 9.07025 10.7007 9.11025 10.7207C9.15025 10.734 9.19025 10.754 9.23025 10.7807C9.26358 10.8073 9.29692 10.834 9.33025 10.8607C9.45025 10.9873 9.52358 11.1607 9.52358 11.334C9.52358 11.5073 9.45025 11.6807 9.33025 11.8073Z" fill="#E4A354"/>
</svg>
