<svg width="21" height="21" viewBox="0 0 21 21" fill="none" xmlns="http://www.w3.org/2000/svg">
<g id="discord">
<path id="Vector" d="M14.8032 16.665C14.8032 16.665 14.2461 15.9996 13.7818 15.4115C15.8092 14.8389 16.583 13.5698 16.583 13.5698C15.9485 13.9877 15.3449 14.2817 14.8032 14.4829C14.0294 14.8079 13.2866 15.0246 12.5592 15.1484C11.0735 15.427 9.71162 15.3496 8.55091 15.1329C7.66878 14.9627 6.91045 14.7151 6.27594 14.4674C5.91999 14.3282 5.53309 14.1579 5.14619 13.9413C5.09976 13.9103 5.05333 13.8948 5.0069 13.8639C4.97595 13.8484 4.96047 13.8329 4.945 13.8174C4.66643 13.6627 4.51167 13.5544 4.51167 13.5544C4.51167 13.5544 5.25452 14.7924 7.21998 15.3805C6.75569 15.9686 6.18308 16.665 6.18308 16.665C2.76288 16.5567 1.46289 14.3127 1.46289 14.3127C1.46289 9.3294 3.69144 5.29015 3.69144 5.29015C5.91999 3.61874 8.04021 3.66517 8.04021 3.66517L8.19497 3.85088C5.40928 4.65563 4.12477 5.87824 4.12477 5.87824C4.12477 5.87824 4.46524 5.69253 5.03785 5.42944C6.69379 4.70206 8.00925 4.50087 8.55091 4.45445C8.64377 4.43897 8.72115 4.42349 8.81401 4.42349C9.75805 4.29969 10.8259 4.26873 11.9402 4.39254C13.4104 4.56278 14.9889 4.99611 16.5985 5.87824C16.5985 5.87824 15.3758 4.71754 12.7449 3.91278L12.9616 3.66517C12.9616 3.66517 15.0818 3.61874 17.3104 5.29015C17.3104 5.29015 19.5389 9.3294 19.5389 14.3127C19.5389 14.3127 18.2234 16.5567 14.8032 16.665ZM7.60688 9.43773C6.72474 9.43773 6.02832 10.2115 6.02832 11.1556C6.02832 12.0996 6.74022 12.8734 7.60688 12.8734C8.48901 12.8734 9.18543 12.0996 9.18543 11.1556C9.20091 10.2115 8.48901 9.43773 7.60688 9.43773ZM13.2556 9.43773C12.3735 9.43773 11.6771 10.2115 11.6771 11.1556C11.6771 12.0996 12.389 12.8734 13.2556 12.8734C14.1378 12.8734 14.8342 12.0996 14.8342 11.1556C14.8342 10.2115 14.1378 9.43773 13.2556 9.43773Z" fill="white" fill-opacity="0.7"/>
</g>
</svg>
