<svg width="146" height="137" viewBox="0 0 146 137" fill="none" xmlns="http://www.w3.org/2000/svg">
<path d="M79.9812 119.197C80.1392 120.329 79.3491 121.384 78.2081 121.456C75.1807 121.65 72.1373 121.344 69.2006 120.547C65.5967 119.57 62.2282 117.872 59.298 115.557C56.3679 113.243 53.9367 110.358 52.1511 107.079C50.6961 104.406 49.6943 101.516 49.1816 98.5264C48.9884 97.3995 49.8312 96.3869 50.9694 96.2785C52.1076 96.1701 53.1089 97.0076 53.3169 98.1318C53.7673 100.566 54.5999 102.918 55.7875 105.099C57.3058 107.888 59.3731 110.34 61.8646 112.308C64.3562 114.277 67.2205 115.72 70.2849 116.551C72.682 117.202 75.1627 117.467 77.6347 117.342C78.7766 117.284 79.8231 118.065 79.9812 119.197Z" fill="#D2D2D2"/>
<path d="M77.7403 121.773L82.6732 120.971C82.8022 122.223 82.7528 123.99 82.6523 125.325C82.52 127.084 84.5855 127.803 85.7504 127.839C87.9445 127.906 88.9581 125.323 89.1456 123.136L89.2407 122.026C89.3188 121.115 89.2829 120.196 89.0888 119.303C88.6054 117.079 87.7215 113.994 86.4711 113.974C78.6957 113.847 78.4053 116.582 76.2438 117.223L77.7403 121.773Z" fill="#CB6262"/>
<path d="M65.9075 118.197C65.7495 119.329 66.5395 120.384 67.6806 120.456C70.7079 120.65 73.7514 120.344 76.6881 119.547C80.2919 118.57 83.6605 116.872 86.5906 114.557C89.5208 112.243 91.952 109.358 93.7375 106.079C95.1926 103.406 96.1944 100.516 96.707 97.5264C96.9002 96.3995 96.0575 95.3869 94.9193 95.2785C93.7811 95.1701 92.7798 96.0076 92.5717 97.1318C92.1214 99.5657 91.2888 101.918 90.1011 104.099C88.5828 106.888 86.5156 109.34 84.024 111.308C81.5325 113.277 78.6682 114.72 75.6038 115.551C73.2067 116.202 70.7259 116.467 68.254 116.342C67.1121 116.284 66.0655 117.065 65.9075 118.197Z" fill="#DADADA"/>
<path d="M68.1483 120.773L63.2154 119.971C63.0865 121.223 63.1359 122.99 63.2364 124.325C63.3687 126.084 61.3032 126.803 60.1383 126.839C57.9442 126.906 56.9306 124.323 56.7431 122.136L56.6479 121.026C56.5699 120.115 56.6057 119.196 56.7999 118.303C57.2832 116.079 58.1672 112.994 59.4176 112.974C67.193 112.847 67.4834 115.582 69.6449 116.223L68.1483 120.773Z" fill="#CB6262"/>
<path d="M86.8385 83.6593C86.3199 84.6783 86.7231 85.9325 87.778 86.3734C90.5769 87.5433 93.5537 88.2466 96.5897 88.4508C100.315 88.7012 104.053 88.1947 107.578 86.9618C111.103 85.7288 114.341 83.7949 117.099 81.2767C119.346 79.2246 121.235 76.8191 122.694 74.1596C123.244 73.1573 122.778 71.9252 121.737 71.4517C120.696 70.9781 119.477 71.4434 118.914 72.4384C117.694 74.5924 116.14 76.5444 114.306 78.2194C111.962 80.3607 109.208 82.0051 106.211 83.0535C103.214 84.1019 100.036 84.5326 96.8675 84.3196C94.3893 84.153 91.9575 83.5952 89.6614 82.6709C88.6008 82.2439 87.3571 82.6403 86.8385 83.6593Z" fill="white"/>
<path d="M60.0512 83.6593C60.5697 84.6783 60.1666 85.9325 59.1117 86.3734C56.3128 87.5433 53.336 88.2466 50.2999 88.4508C46.5742 88.7012 42.8363 88.1947 39.3115 86.9618C35.7868 85.7288 32.5482 83.7949 29.7909 81.2767C27.5441 79.2246 25.6548 76.8191 24.1954 74.1596C23.6453 73.1573 24.1119 71.9252 25.1525 71.4517C26.1932 70.9781 27.4129 71.4434 27.9761 72.4384C29.1953 74.5924 30.7492 76.5444 32.5832 78.2194C34.9277 80.3607 37.6815 82.0051 40.6786 83.0535C43.6758 84.1019 46.8541 84.5326 50.0222 84.3196C52.5004 84.153 54.9321 83.5952 57.2282 82.6709C58.2888 82.2439 59.5326 82.6403 60.0512 83.6593Z" fill="white"/>
<path d="M43.4756 57.022C52.5703 40.1425 73.6267 33.8318 90.5064 42.9263C107.386 52.021 113.697 73.0767 104.602 89.9562C95.5079 106.836 74.4518 113.147 57.5721 104.053C40.6923 94.9586 34.381 73.9017 43.4756 57.022Z" fill="#99D0FF" stroke="#779AC7"/>
<ellipse cx="65.4968" cy="38.1307" rx="6.45941" ry="6.5354" transform="rotate(-10.0497 65.4968 38.1307)" fill="#FFCD6C"/>
<ellipse cx="89.7019" cy="38.8075" rx="6.45941" ry="6.5354" transform="rotate(-10.0497 89.7019 38.8075)" fill="#FFCD6C"/>
<ellipse cx="78.2663" cy="34.8691" rx="10.1252" ry="10.2443" transform="rotate(-10.0497 78.2663 34.8691)" fill="#FFCD6C"/>
<g style="mix-blend-mode:screen">
<path d="M88.1809 47.2612C97.7156 52.3984 102.234 62.5224 98.2733 69.8739C94.3124 77.2253 83.3721 79.0204 73.8374 73.8832C64.3027 68.746 59.7842 58.622 63.745 51.2706C67.7059 43.9191 78.6462 42.1241 88.1809 47.2612Z" fill="#3CA3FC"/>
</g>
<path d="M70.5469 62.5893C71.6076 62.7001 72.398 63.6626 72.054 64.6722C71.5352 66.1949 70.5955 67.5549 69.326 68.5842C67.5519 70.0226 65.279 70.6973 63.0074 70.46C60.7359 70.2226 58.6516 69.0926 57.2132 67.3185C56.1839 66.049 55.5456 64.5241 55.3528 62.927C55.225 61.8682 56.1973 61.0898 57.258 61.2006C58.3187 61.3115 59.0508 62.2917 59.3685 63.3097C59.546 63.8786 59.8306 64.4143 60.2132 64.8862C61.0065 65.8646 62.156 66.4879 63.4088 66.6188C64.6617 66.7497 65.9152 66.3775 66.8936 65.5842C67.3655 65.2017 67.7547 64.7363 68.0459 64.2165C68.5672 63.2861 69.4861 62.4784 70.5469 62.5893Z" fill="#192A3D"/>
<path d="M90.3597 62.331C91.4183 62.2009 92.4046 62.9614 92.296 64.0224C92.1322 65.6227 91.5218 67.159 90.5158 68.447C89.1098 70.2469 87.0465 71.4147 84.7796 71.6933C82.5127 71.9719 80.2279 71.3386 78.428 69.9327C77.14 68.9266 76.1757 67.5839 75.6293 66.0709C75.267 65.0678 76.0398 64.091 77.0983 63.9609C78.1568 63.8308 79.0903 64.6216 79.6284 65.5424C79.9291 66.0569 80.3267 66.5151 80.8054 66.889C81.7981 67.6644 83.0582 68.0137 84.3084 67.86C85.5587 67.7064 86.6967 67.0623 87.4721 66.0696C87.846 65.5909 88.1208 65.05 88.2879 64.4781C88.587 63.4544 89.3012 62.4611 90.3597 62.331Z" fill="#192A3D"/>
<path d="M81.4847 76.8173C82.7928 76.9276 83.8898 77.9063 83.6111 78.9357C83.1905 80.4885 82.2345 81.8765 80.8305 82.9284C78.8686 84.3984 76.1926 85.0916 73.3914 84.8555C70.5902 84.6194 67.8931 83.4733 65.8935 81.6694C64.4627 80.3785 63.4728 78.8265 63.0158 77.1998C62.7128 76.1213 63.7894 75.3258 65.0975 75.4361C66.4055 75.5463 67.434 76.5431 67.9627 77.5796C68.2581 78.1587 68.6794 78.7039 69.2112 79.1836C70.314 80.1785 71.8015 80.8106 73.3464 80.9409C74.8914 81.0711 76.3672 80.6888 77.4493 79.878C77.9711 79.4871 78.3807 79.0119 78.6633 78.4816C79.1692 77.5323 80.1767 76.7071 81.4847 76.8173Z" fill="#192A3D"/>
</svg>
