<svg width="21" height="21" viewBox="0 0 21 21" fill="none" xmlns="http://www.w3.org/2000/svg">
<g id="Github">
<path id="Vector" d="M10.5002 3.66504C6.85438 3.66504 3.89844 6.62099 3.89844 10.2668C3.89844 13.3603 6.02861 15.9487 8.90038 16.665C8.86958 16.5759 8.84977 16.4725 8.84977 16.3443V15.216C8.58185 15.216 8.13293 15.216 8.02015 15.216C7.56848 15.216 7.16687 15.0217 6.97212 14.6609C6.75591 14.2598 6.7185 13.6464 6.18265 13.2712C6.02366 13.1463 6.14469 13.0038 6.32789 13.0231C6.66623 13.1188 6.94681 13.3509 7.21088 13.6953C7.47385 14.0403 7.59763 14.1184 8.08892 14.1184C8.32713 14.1184 8.68363 14.1047 9.01922 14.0518C9.19966 13.5936 9.5116 13.1716 9.89285 12.9724C7.69446 12.7463 6.64533 11.6526 6.64533 10.1678C6.64533 9.52852 6.91765 8.91015 7.38033 8.38916C7.22848 7.87202 7.03758 6.81739 7.43864 6.41578C8.42781 6.41578 9.02582 7.05725 9.16941 7.23055C9.66234 7.06165 10.2037 6.96593 10.7725 6.96593C11.3425 6.96593 11.886 7.06165 12.3801 7.23165C12.522 7.05945 13.1206 6.41578 14.1119 6.41578C14.5146 6.81794 14.3215 7.87697 14.1681 8.39301C14.628 8.9129 14.8987 9.52962 14.8987 10.1678C14.8987 11.6515 13.8512 12.7447 11.6561 12.9719C12.2601 13.2871 12.7008 14.1729 12.7008 14.8402V16.3443C12.7008 16.4015 12.6882 16.4428 12.6816 16.4917C15.254 15.5901 17.102 13.1474 17.102 10.2668C17.102 6.62099 14.146 3.66504 10.5002 3.66504Z" fill="white" fill-opacity="0.7"/>
</g>
</svg>
