<svg width="15" height="14" viewBox="0 0 15 14" fill="none" xmlns="http://www.w3.org/2000/svg">
<g id="linkedin icon">
<g id="Group">
<path id="Vector" fill-rule="evenodd" clip-rule="evenodd" d="M3.61402 2.09103C3.61402 2.86843 3.0221 3.49756 2.09643 3.49756C1.20683 3.49756 0.614907 2.86843 0.633226 2.09103C0.614907 1.27585 1.20682 0.665039 2.11417 0.665039C3.02209 0.665039 3.59628 1.27585 3.61402 2.09103ZM0.707649 13.6638V4.6087H3.52185V13.6633H0.707649V13.6638Z" fill="white" fill-opacity="0.7"/>
</g>
<g id="Group_2">
<path id="Vector_2" fill-rule="evenodd" clip-rule="evenodd" d="M5.77755 7.49858C5.77755 6.36912 5.74033 5.40625 5.70312 4.60996H8.14752L8.27746 5.85048H8.333C8.70338 5.2763 9.62905 4.40674 11.1289 4.40674C12.9802 4.40674 14.369 5.62894 14.369 8.2943V13.6651H11.5548V8.64693C11.5548 7.47969 11.1478 6.68397 10.1294 6.68397C9.35141 6.68397 8.88887 7.22094 8.70396 7.73902C8.62954 7.92449 8.5929 8.18324 8.5929 8.44314V13.6651H5.77868V7.49858H5.77755Z" fill="white" fill-opacity="0.7"/>
</g>
</g>
</svg>
