<svg width="138" height="41" viewBox="0 0 138 41" fill="none" xmlns="http://www.w3.org/2000/svg">
<path d="M28.346 32.7466L30.5939 33.8123C33.5913 35.2332 37.2135 33.9573 38.1507 30.7753C39.8753 24.92 40.4347 18.0478 37.9718 12.4882C35.0246 5.83516 27.736 4.02776 25.1557 4.40586L20.4219 6.97023C22.2133 7.29898 25.8259 9.53456 25.9442 15.8468C25.9904 18.31 25.5476 20.633 24.8976 22.6635C23.7079 26.38 24.8198 31.0749 28.346 32.7466Z" fill="#2B80D7"/>
<mask id="mask0_517_2945" style="mask-type:alpha" maskUnits="userSpaceOnUse" x="20" y="4" width="20" height="31">
<path d="M28.346 32.7476L30.5939 33.8132C33.5913 35.2342 37.2135 33.9583 38.1507 30.7763C39.8753 24.921 40.4347 18.0488 37.9718 12.4892C35.0246 5.83614 27.736 4.02874 25.1557 4.40683L20.4219 6.97121C22.2133 7.29996 25.8259 9.53553 25.9442 15.8478C25.9904 18.311 25.5476 20.634 24.8976 22.6644C23.7079 26.381 24.8198 31.0759 28.346 32.7476Z" fill="#DEA00D"/>
</mask>
<g mask="url(#mask0_517_2945)">
<g filter="url(#filter0_f_517_2945)">
<path d="M27.2317 31.5442C33.489 26.1816 41.2489 8.71831 37.1316 5.16186C35.5607 3.80496 21.2233 4.12592 19.9424 3.1123L20.9864 4.66655C20.9864 4.66655 25.184 9.92465 24.9092 18.1817C24.7405 23.2526 22.9187 28.4949 21.7866 31.0576C21.6016 31.4766 13.1913 27.3263 13.0333 27.6482C12.5841 28.5636 20.8316 32.6494 20.8316 32.6494L25.2242 32.3131C25.9595 32.2568 26.6718 32.0241 27.2317 31.5442Z" fill="url(#paint0_linear_517_2945)"/>
</g>
<g filter="url(#filter1_f_517_2945)">
<path d="M37.615 36.3066C43.451 31.0193 48.4446 18.1227 44.3252 10.7523C43.3124 8.94023 35.7286 3.75483 34.4477 2.74121L34.0496 7.90629C34.0496 7.90629 38.7303 12.4164 38.4551 20.6892C38.3161 24.8645 37.5085 28.4013 36.7425 30.8804C36.0539 33.1092 33.6147 34.0734 31.4694 33.1574C29.2323 32.2024 26.864 31.1174 26.9925 30.8556C26.5432 31.7709 34.7146 36.5614 34.7146 36.5614C35.6587 37.0702 36.8202 37.0267 37.615 36.3066Z" fill="url(#paint1_linear_517_2945)"/>
</g>
<g opacity="0.8" filter="url(#filter2_f_517_2945)">
<rect width="15.6913" height="13.1353" rx="6.56767" transform="matrix(0.94997 0.312342 -0.312247 0.950001 21.1836 19.3516)" fill="#13497E"/>
</g>
<g opacity="0.7" filter="url(#filter3_f_517_2945)">
<path d="M23.1729 26.4568C27.5253 22.3954 28.0012 12.1 23.8662 7.99562C22.7415 6.87926 21.0631 5.68086 19.9806 4.93359L20.8629 6.07942C20.8629 6.07942 24.4101 9.95582 24.1779 16.0431C24.0354 19.7816 22.4957 23.6463 21.5391 25.5356C21.3827 25.8444 14.2754 22.7847 14.1419 23.0221C13.7622 23.6969 20.732 26.7091 20.732 26.7091C21.5441 27.0909 22.5168 27.069 23.1729 26.4568Z" fill="#2B80D7"/>
</g>
</g>
<path d="M28.3519 23.9748L23.1189 22.0807C21.4532 21.4778 19.634 22.4508 18.8946 24.0607C17.8029 26.4377 15.9609 29.177 13.1205 30.417C7.96604 32.6671 6.27011 27.633 8.53821 33.9946C10.8063 40.3562 18.3009 42.1808 25.1545 38.2849C28.6268 36.3111 30.6082 32.9013 31.6444 29.9145C32.5214 27.3868 30.8677 24.8854 28.3519 23.9748Z" fill="url(#paint2_linear_517_2945)"/>
<mask id="mask1_517_2945" style="mask-type:alpha" maskUnits="userSpaceOnUse" x="7" y="21" width="25" height="20">
<path d="M28.3519 23.9758L23.1189 22.0817C21.4532 21.4787 19.634 22.4518 18.8946 24.0616C17.8029 26.4386 15.9609 29.178 13.1205 30.4179C7.96604 32.6681 6.27011 27.6339 8.53821 33.9955C10.8063 40.3571 18.3009 42.1818 25.1545 38.2859C28.6268 36.3121 30.6082 32.9023 31.6444 29.9154C32.5214 27.3878 30.8677 24.8864 28.3519 23.9758Z" fill="url(#paint3_radial_517_2945)"/>
</mask>
<g mask="url(#mask1_517_2945)">
<g filter="url(#filter4_f_517_2945)">
<path d="M14.45 42.0327C24.3266 42.0327 28.9228 25.6498 28.6307 20.4417C28.5792 19.5235 27.8322 18.937 26.9546 18.6617L8.06338 12.7354L19.328 17.3815C19.9786 17.6499 20.3525 18.3326 20.1802 19.015C19.7001 20.9171 18.5006 24.7187 16.1109 27.298C12.8102 30.8606 5.99288 31.6599 3.18071 30.9956C1.68321 30.9933 0.837891 30.4809 0.837891 30.4809C4.24329 32.6938 9.13375 42.0327 14.45 42.0327Z" fill="url(#paint4_linear_517_2945)"/>
</g>
<g opacity="0.4" filter="url(#filter5_f_517_2945)">
<path d="M15.688 29.7905C19.4276 27.2565 22.3531 18.672 22.5692 14.2982C22.6392 12.8822 21.413 12.0358 19.9967 11.9725L10.1003 11.5303L19.5026 16.1532C20.0875 16.4408 20.4187 17.0704 20.286 17.7085C19.8981 19.574 18.8921 23.467 16.8511 26.0929C14.0822 29.6555 8.36342 30.4548 6.00437 29.7905C4.74816 29.7882 4.09961 30.2969 4.09961 30.2969C6.9563 32.5099 11.8108 32.4178 15.688 29.7905Z" fill="#3EBADD"/>
</g>
<g filter="url(#filter6_f_517_2945)">
<path d="M25.4963 39.2407C30.1169 36.6142 34.245 27.0308 34.4377 22.6864C34.4903 21.5004 33.4401 20.7996 32.2614 20.6574L19.7996 19.1533L19.4833 21.1972L28.1832 24.5947C29.9282 25.2762 31.0562 26.9871 30.4854 28.7713C29.9423 30.4686 28.9059 32.6897 26.9282 34.9406C22.8242 39.6115 16.8911 39.3902 14.0789 38.7259C12.5814 38.7236 12.2129 38.7259 12.2129 38.7259C15.4173 41.0034 20.8744 41.868 25.4963 39.2407Z" fill="url(#paint5_linear_517_2945)"/>
</g>
</g>
<path d="M14.9977 19.6428C11.6448 25.952 8.40037 38.8715 18.6562 40.3017C14.6455 40.6102 5.53018 38.5501 1.38844 28.7661C-3.78874 16.536 6.36896 1.84022 17.7094 0.508724C28.7961 -0.792969 34.5107 5.25784 37.8015 12.1183C37.886 12.2815 37.96 12.4397 38.0238 12.5908C37.9509 12.4329 37.8768 12.2754 37.8015 12.1183C36.5352 9.67246 32.9326 6.10599 26.8312 8.39903C22.4176 10.0578 17.5771 14.7889 14.9977 19.6428Z" fill="#2CBBF9"/>
<mask id="mask2_517_2945" style="mask-type:alpha" maskUnits="userSpaceOnUse" x="0" y="0" width="39" height="41">
<path d="M14.9977 19.6418C11.6448 25.951 8.40037 38.8706 18.6562 40.3007C14.6455 40.6093 5.53018 38.5491 1.38844 28.7651C-3.78874 16.535 6.36896 1.83924 17.7094 0.507747C28.7961 -0.793945 34.5107 5.25686 37.8015 12.1174C37.886 12.2805 37.96 12.4387 38.0238 12.5898C37.9509 12.432 37.8768 12.2744 37.8015 12.1174C36.5352 9.67149 32.9326 6.10501 26.8312 8.39806C22.4176 10.0568 17.5771 14.7879 14.9977 19.6418Z" fill="#00CCC0"/>
</mask>
<g mask="url(#mask2_517_2945)">
<g filter="url(#filter7_f_517_2945)">
<path d="M-8.6285 28.4929C-4.48676 38.2769 14.3515 41.2069 18.3623 40.8983C18.5635 39.0003 12.8089 34.8795 13.0097 30.2941C13.0097 30.2941 5.67151 30.5291 4.55101 19.6407C3.43051 8.75223 9.67515 3.27246 9.67515 3.27246C2.23011 6.94308 -10.8691 23.2 -8.6285 28.4929Z" fill="url(#paint6_linear_517_2945)"/>
<path d="M38.0232 12.5913C57.3554 -3.01472 24.6506 -6.6173 13.3101 -5.2858C8.58924 -4.73151 -3.82924 7.75188 1.05913 13.1239C1.05913 13.1239 6.12848 7.5073 13.3101 6.48117C20.4918 5.45505 23.8174 10.6329 23.8174 10.6329C24.6924 10.0961 26.9932 9.94825 27.8556 9.62412C34.364 7.17811 37.7052 11.9208 38.0232 12.5913Z" fill="url(#paint7_linear_517_2945)"/>
</g>
<g filter="url(#filter8_f_517_2945)">
<path d="M1.86135 30.0254C-9.68078 26.3799 -4.12558 1.62126 7.45455 -1.92222C17.8738 -5.11047 18.7324 -0.100851 20.5651 0.204365C20.8031 0.197013 20.9321 0.201727 20.9321 0.201727C20.8039 0.224163 20.6825 0.223913 20.5651 0.204365C19.1883 0.246907 14.1632 0.693495 9.37089 4.79576C2.16341 10.9655 -0.738515 20.8291 1.86135 30.0254Z" fill="#56E5FF"/>
</g>
<g filter="url(#filter9_f_517_2945)">
<path d="M20.5254 40.2799C17.318 43.8909 4.18926 39.5 0.0475226 29.716C-0.698157 27.9544 0.112603 22.5502 0.0587272 20.4499C0.0493405 20.2923 0.0475231 20.208 0.0475231 20.208C0.0528327 20.2827 0.0565113 20.3635 0.0587272 20.4499C0.128396 21.6194 0.615034 26.8234 3.87034 31.5263C7.56425 36.8628 15.1517 38.953 15.1517 38.953C16.1418 39.6574 18.9386 40.0586 20.5254 40.2799Z" fill="#FDC7C7"/>
</g>
<mask id="mask3_517_2945" style="mask-type:alpha" maskUnits="userSpaceOnUse" x="-6" y="18" width="26" height="27">
<rect width="26.3237" height="9.24286" transform="matrix(0.696245 0.717804 -0.717687 0.696365 0.994141 18.874)" fill="url(#paint8_linear_517_2945)"/>
</mask>
<g mask="url(#mask3_517_2945)">
<path d="M20.5254 40.2799C17.318 43.8909 4.18926 39.5 0.0475226 29.716C-0.698157 27.9544 0.112603 22.5502 0.0587272 20.4499C0.0493405 20.2923 0.0475231 20.208 0.0475231 20.208C0.0528327 20.2827 0.0565113 20.3635 0.0587272 20.4499C0.128396 21.6194 0.615034 26.8234 3.87034 31.5263C7.56425 36.8628 15.1517 38.953 15.1517 38.953C16.1418 39.6574 18.9386 40.0586 20.5254 40.2799Z" fill="#FDC7C7"/>
</g>
<g filter="url(#filter10_f_517_2945)">
<path d="M38.8432 13.1049C39.6878 6.96643 28.7371 -2.5462 17.3966 -1.2147C13.2936 -0.732964 9.65825 3.22083 6.53516 6.45158C6.53516 6.45158 13.6229 0.152176 22.2514 1.36405C30.8799 2.57591 34.7352 8.96577 34.7352 8.96577C36.537 10.0196 37.3591 13.2579 38.8432 13.1049Z" fill="#EFC7FD"/>
</g>
<mask id="mask4_517_2945" style="mask-type:alpha" maskUnits="userSpaceOnUse" x="5" y="-3" width="33" height="16">
<rect width="31.2954" height="10.511" transform="matrix(0.989125 0.147079 -0.147031 0.989132 6.75 -2.38281)" fill="url(#paint9_linear_517_2945)"/>
</mask>
<g mask="url(#mask4_517_2945)">
<path d="M38.8451 13.1059C39.6897 6.96741 28.739 -2.54522 17.3985 -1.21372C13.2956 -0.731988 9.6602 3.2218 6.53711 6.45256C6.53711 6.45256 13.6248 0.153153 22.2534 1.36502C30.8819 2.57689 34.7372 8.96675 34.7372 8.96675C36.539 10.0205 37.361 13.2589 38.8451 13.1059Z" fill="#EFC7FD"/>
</g>
<g filter="url(#filter11_f_517_2945)">
<path d="M25.7163 6.85677C14.0993 10.5208 3.80876 31.9066 13.8078 39.9286C23.8069 47.9505 35.4961 32.7122 41.377 20.3699C38.4673 12.0754 37.3334 3.19276 25.7163 6.85677Z" fill="url(#paint10_linear_517_2945)"/>
</g>
<mask id="mask5_517_2945" style="mask-type:alpha" maskUnits="userSpaceOnUse" x="-6" y="-6" width="51" height="53">
<rect width="33.868" height="40.4054" transform="matrix(0.855498 0.517807 -0.51768 0.855575 15.5547 -5.53125)" fill="url(#paint11_linear_517_2945)"/>
</mask>
<g mask="url(#mask5_517_2945)">
<path d="M25.7144 6.85677C14.0973 10.5208 3.80681 31.9066 13.8059 39.9286C23.8049 47.9505 35.4942 32.7122 41.375 20.3699C38.4654 12.0754 37.3314 3.19276 25.7144 6.85677Z" fill="url(#paint12_linear_517_2945)"/>
</g>
</g>
<path d="M64.5066 13.3234C64.7939 12.3463 65.6906 11.6754 66.709 11.6754H66.8086C68.0765 11.6754 69.1043 12.7032 69.1043 13.971V29.76C69.1043 31.0279 68.0765 32.0557 66.8086 32.0557H66.5686C65.5275 32.0557 64.6166 31.355 64.3497 30.3486L64.312 30.2064C62.5761 31.7538 60.312 32.6596 57.7083 32.6596C51.5952 32.6596 47.0293 28.0174 47.0293 21.8655C47.0293 15.7137 51.5952 11.1092 57.7083 11.1092C60.3498 11.1092 62.6516 12.0528 64.4252 13.6002L64.5066 13.3234ZM58.1611 27.4513C61.3686 27.4513 63.7082 25.0736 63.7082 21.8655C63.7082 18.6575 61.3686 16.2798 58.1611 16.2798C54.9537 16.2798 52.6141 18.6575 52.6141 21.8655C52.6141 25.0358 54.9537 27.4513 58.1611 27.4513Z" fill="#E2EEFE"/>
<path d="M86.499 13.1952C86.8263 12.2835 87.6908 11.6754 88.6596 11.6754H89.3637C90.9847 11.6754 92.0951 13.3097 91.498 14.8167L85.2419 30.6057C84.8951 31.4809 84.0491 32.0557 83.1077 32.0557H81.1169C80.1834 32.0557 79.3429 31.4905 78.9908 30.6261L72.5593 14.8371C71.9443 13.3272 73.0551 11.6754 74.6854 11.6754H75.5516C76.5162 11.6754 77.378 12.2784 77.7084 13.1847L82.1391 25.3377L86.499 13.1952Z" fill="#E2EEFE"/>
<path d="M110.835 11.6754H112.652C113.92 11.6754 114.948 12.7032 114.948 13.971V29.76C114.948 31.0279 113.92 32.0557 112.652 32.0557H112.412C111.371 32.0557 110.46 31.355 110.193 30.3486L110.156 30.2064C108.42 31.7538 106.156 32.6596 103.552 32.6596C97.4389 32.6596 92.873 28.0174 92.873 21.8655C92.873 15.7137 97.4389 11.1092 103.552 11.1092C106.193 11.1092 108.495 12.0528 110.269 13.6002L110.835 11.6754ZM104.005 27.4513C107.212 27.4513 109.552 25.0736 109.552 21.8655C109.552 18.6575 107.212 16.2798 104.005 16.2798C100.797 16.2798 98.4578 18.6575 98.4578 21.8655C98.4578 25.0358 100.797 27.4513 104.005 27.4513Z" fill="#E2EEFE"/>
<path d="M122.231 9.67884C120.76 9.67884 119.568 8.48673 119.568 7.0162C119.568 5.54567 120.76 4.35356 122.231 4.35356H122.377C123.847 4.35356 125.039 5.54567 125.039 7.0162C125.039 8.48673 123.847 9.67884 122.377 9.67884H122.231ZM121.826 32.0557C120.558 32.0557 119.53 31.0279 119.53 29.76V13.971C119.53 12.7032 120.558 11.6754 121.826 11.6754H122.744C124.012 11.6754 125.039 12.7032 125.039 13.971V29.76C125.039 31.0279 124.012 32.0557 122.744 32.0557H121.826Z" fill="#E2EEFE"/>
<path d="M135.082 25.3629C135.082 25.8432 135.181 26.1823 135.379 26.38C135.605 26.5496 135.958 26.6343 136.438 26.6343C136.677 26.6343 136.9 26.6343 137.226 26.6343C137.551 26.6343 137.751 26.9262 137.751 27.1936V31.4237L137.751 31.443C137.752 31.7513 137.516 32.0249 137.14 32.0249C136.427 32.0249 135.835 32.0557 135.082 32.0557L134.064 32.0556C132.623 32.0556 131.508 31.6742 130.717 30.9114C129.954 30.1486 129.573 28.7925 129.573 26.843V6.64922C129.573 5.38136 130.601 4.35355 131.868 4.35354L132.786 4.35354C134.054 4.35353 135.082 5.38134 135.082 6.64922V25.3629Z" fill="#E2EEFE"/>
<defs>
<filter id="filter0_f_517_2945" x="-9.50093" y="-19.4043" width="70.3026" height="74.5702" filterUnits="userSpaceOnUse" color-interpolation-filters="sRGB">
<feFlood flood-opacity="0" result="BackgroundImageFix"/>
<feBlend mode="normal" in="SourceGraphic" in2="BackgroundImageFix" result="shape"/>
<feGaussianBlur stdDeviation="11.2583" result="effect1_foregroundBlur_517_2945"/>
</filter>
<filter id="filter1_f_517_2945" x="26.2241" y="1.99066" width="20.3624" height="35.6613" filterUnits="userSpaceOnUse" color-interpolation-filters="sRGB">
<feFlood flood-opacity="0" result="BackgroundImageFix"/>
<feBlend mode="normal" in="SourceGraphic" in2="BackgroundImageFix" result="shape"/>
<feGaussianBlur stdDeviation="0.375276" result="effect1_foregroundBlur_517_2945"/>
</filter>
<filter id="filter2_f_517_2945" x="-2.21272" y="0.0568104" width="57.5973" height="55.9684" filterUnits="userSpaceOnUse" color-interpolation-filters="sRGB">
<feFlood flood-opacity="0" result="BackgroundImageFix"/>
<feBlend mode="normal" in="SourceGraphic" in2="BackgroundImageFix" result="shape"/>
<feGaussianBlur stdDeviation="10.5077" result="effect1_foregroundBlur_517_2945"/>
</filter>
<filter id="filter3_f_517_2945" x="11.1247" y="1.93139" width="18.5943" height="28.0337" filterUnits="userSpaceOnUse" color-interpolation-filters="sRGB">
<feFlood flood-opacity="0" result="BackgroundImageFix"/>
<feBlend mode="normal" in="SourceGraphic" in2="BackgroundImageFix" result="shape"/>
<feGaussianBlur stdDeviation="1.5011" result="effect1_foregroundBlur_517_2945"/>
</filter>
<filter id="filter4_f_517_2945" x="-14.1731" y="-2.27569" width="57.8287" height="59.3199" filterUnits="userSpaceOnUse" color-interpolation-filters="sRGB">
<feFlood flood-opacity="0" result="BackgroundImageFix"/>
<feBlend mode="normal" in="SourceGraphic" in2="BackgroundImageFix" result="shape"/>
<feGaussianBlur stdDeviation="7.50552" result="effect1_foregroundBlur_517_2945"/>
</filter>
<filter id="filter5_f_517_2945" x="1.0974" y="8.52807" width="24.4771" height="26.3404" filterUnits="userSpaceOnUse" color-interpolation-filters="sRGB">
<feFlood flood-opacity="0" result="BackgroundImageFix"/>
<feBlend mode="normal" in="SourceGraphic" in2="BackgroundImageFix" result="shape"/>
<feGaussianBlur stdDeviation="1.5011" result="effect1_foregroundBlur_517_2945"/>
</filter>
<filter id="filter6_f_517_2945" x="11.4623" y="18.4028" width="23.7277" height="23.2062" filterUnits="userSpaceOnUse" color-interpolation-filters="sRGB">
<feFlood flood-opacity="0" result="BackgroundImageFix"/>
<feBlend mode="normal" in="SourceGraphic" in2="BackgroundImageFix" result="shape"/>
<feGaussianBlur stdDeviation="0.375276" result="effect1_foregroundBlur_517_2945"/>
</filter>
<filter id="filter7_f_517_2945" x="-32.9005" y="-29.5577" width="100.926" height="94.4953" filterUnits="userSpaceOnUse" color-interpolation-filters="sRGB">
<feFlood flood-opacity="0" result="BackgroundImageFix"/>
<feBlend mode="normal" in="SourceGraphic" in2="BackgroundImageFix" result="shape"/>
<feGaussianBlur stdDeviation="12.0088" result="effect1_foregroundBlur_517_2945"/>
</filter>
<filter id="filter8_f_517_2945" x="-7.50025" y="-5.9817" width="31.4341" height="39.0093" filterUnits="userSpaceOnUse" color-interpolation-filters="sRGB">
<feFlood flood-opacity="0" result="BackgroundImageFix"/>
<feBlend mode="normal" in="SourceGraphic" in2="BackgroundImageFix" result="shape"/>
<feGaussianBlur stdDeviation="1.5011" result="effect1_foregroundBlur_517_2945"/>
</filter>
<filter id="filter9_f_517_2945" x="-3.27174" y="17.2058" width="26.7993" height="27.3306" filterUnits="userSpaceOnUse" color-interpolation-filters="sRGB">
<feFlood flood-opacity="0" result="BackgroundImageFix"/>
<feBlend mode="normal" in="SourceGraphic" in2="BackgroundImageFix" result="shape"/>
<feGaussianBlur stdDeviation="1.5011" result="effect1_foregroundBlur_517_2945"/>
</filter>
<filter id="filter10_f_517_2945" x="3.53295" y="-4.34303" width="38.3579" height="20.4556" filterUnits="userSpaceOnUse" color-interpolation-filters="sRGB">
<feFlood flood-opacity="0" result="BackgroundImageFix"/>
<feBlend mode="normal" in="SourceGraphic" in2="BackgroundImageFix" result="shape"/>
<feGaussianBlur stdDeviation="1.5011" result="effect1_foregroundBlur_517_2945"/>
</filter>
<filter id="filter11_f_517_2945" x="9.01312" y="5.25726" width="33.1144" height="37.6554" filterUnits="userSpaceOnUse" color-interpolation-filters="sRGB">
<feFlood flood-opacity="0" result="BackgroundImageFix"/>
<feBlend mode="normal" in="SourceGraphic" in2="BackgroundImageFix" result="shape"/>
<feGaussianBlur stdDeviation="0.375276" result="effect1_foregroundBlur_517_2945"/>
</filter>
<linearGradient id="paint0_linear_517_2945" x1="28.8303" y1="8.10375" x2="28.6342" y2="32.8156" gradientUnits="userSpaceOnUse">
<stop stop-color="#13497E"/>
<stop offset="0.640419" stop-color="#2B80D7"/>
</linearGradient>
<linearGradient id="paint1_linear_517_2945" x1="36.4052" y1="9.92018" x2="36.4146" y2="35.5949" gradientUnits="userSpaceOnUse">
<stop stop-color="#E2C7FE"/>
<stop offset="0.450702" stop-color="#77B8FD"/>
</linearGradient>
<linearGradient id="paint2_linear_517_2945" x1="26.1373" y1="16.516" x2="12.8889" y2="38.8067" gradientUnits="userSpaceOnUse">
<stop stop-color="#269EBF"/>
<stop offset="1" stop-color="#3EBADD"/>
</linearGradient>
<radialGradient id="paint3_radial_517_2945" cx="0" cy="0" r="1" gradientUnits="userSpaceOnUse" gradientTransform="translate(27.9439 23.9669) rotate(139.705) scale(28.1134 20.7162)">
<stop offset="0.411461" stop-color="#FF7360"/>
<stop offset="1" stop-color="#630513"/>
</radialGradient>
<linearGradient id="paint4_linear_517_2945" x1="23.452" y1="22.3048" x2="12.5561" y2="37.853" gradientUnits="userSpaceOnUse">
<stop stop-color="#33B6D2"/>
<stop offset="0.142991" stop-color="#5BD8FF"/>
<stop offset="1" stop-color="#228AA7"/>
</linearGradient>
<linearGradient id="paint5_linear_517_2945" x1="27.0139" y1="24.0152" x2="17.6655" y2="39.566" gradientUnits="userSpaceOnUse">
<stop offset="0.635417" stop-color="#68DEFF"/>
<stop offset="1" stop-color="#F3C8CB"/>
</linearGradient>
<linearGradient id="paint6_linear_517_2945" x1="1.47936" y1="13.5092" x2="11.7819" y2="39.0019" gradientUnits="userSpaceOnUse">
<stop offset="0.661495" stop-color="#88FFF8"/>
<stop offset="1" stop-color="#176781"/>
</linearGradient>
<linearGradient id="paint7_linear_517_2945" x1="6.95101" y1="15.0822" x2="35.5716" y2="3.21768" gradientUnits="userSpaceOnUse">
<stop offset="0.731633" stop-color="#4D89FD"/>
<stop offset="1" stop-color="#033883"/>
</linearGradient>
<linearGradient id="paint8_linear_517_2945" x1="25.1381" y1="4.49783" x2="10.6817" y2="7.04442" gradientUnits="userSpaceOnUse">
<stop stop-color="#D9D9D9"/>
<stop offset="0.658857" stop-color="#D9D9D9" stop-opacity="0"/>
</linearGradient>
<linearGradient id="paint9_linear_517_2945" x1="31.2745" y1="7.9127" x2="16.5904" y2="1.08164" gradientUnits="userSpaceOnUse">
<stop stop-color="#D9D9D9"/>
<stop offset="1" stop-color="#D9D9D9" stop-opacity="0"/>
</linearGradient>
<linearGradient id="paint10_linear_517_2945" x1="33.102" y1="6.77049" x2="13.842" y2="39.3902" gradientUnits="userSpaceOnUse">
<stop stop-color="#EFC7FE"/>
<stop offset="0.286458" stop-color="#2CBBF9"/>
<stop offset="0.65625" stop-color="#2CBBF9"/>
<stop offset="1" stop-color="#FDC8C8"/>
</linearGradient>
<linearGradient id="paint11_linear_517_2945" x1="33.1335" y1="18.923" x2="4.93829" y2="18.3274" gradientUnits="userSpaceOnUse">
<stop stop-color="#D9D9D9"/>
<stop offset="0.659264" stop-color="#D9D9D9" stop-opacity="0"/>
</linearGradient>
<linearGradient id="paint12_linear_517_2945" x1="33.1001" y1="6.77049" x2="13.8401" y2="39.3902" gradientUnits="userSpaceOnUse">
<stop stop-color="#EFC7FE"/>
<stop offset="0.317708" stop-color="#2CBBF9"/>
<stop offset="0.661458" stop-color="#2CBBF9"/>
<stop offset="1" stop-color="#FDC8C8"/>
</linearGradient>
</defs>
</svg>
