<svg width="160" height="136" viewBox="0 0 160 136" fill="none" xmlns="http://www.w3.org/2000/svg">
<path d="M90.9826 58.4153C90.4544 58.1046 89.8003 58.1004 89.2681 58.4042L32.66 90.7118C31.5232 91.3606 31.5069 92.9938 32.6305 93.6651L102.264 135.271C102.815 135.6 103.504 135.593 104.048 135.253L158.641 101.099C159.729 100.418 159.707 98.8256 158.6 98.1749L90.9826 58.4153Z" fill="#4C92F2"/>
<path d="M90.9826 54.695C90.4544 54.3843 89.8003 54.3801 89.2681 54.6839L32.66 86.9915C31.5232 87.6403 31.5069 89.2735 32.6305 89.9448L102.264 131.551C102.815 131.88 103.504 131.873 104.048 131.532L158.641 97.3786C159.729 96.6978 159.707 95.1053 158.6 94.4546L90.9826 54.695Z" fill="#306AF2"/>
<path d="M159.451 95.8316L102.906 132.101L103.611 135.519L159.539 100.311L159.451 95.8316Z" fill="#4C92F2"/>
<path d="M31.8821 89.0495L104.013 132.101L103.308 135.519L31.7526 92.1762L31.8821 89.0495Z" fill="#4C92F2"/>
<path d="M90.9826 45.6799C90.4544 45.3693 89.8003 45.3651 89.2681 45.6688L32.66 77.9764C31.5232 78.6252 31.5069 80.2584 32.6305 80.9298L102.264 122.535C102.815 122.865 103.504 122.858 104.048 122.517L158.641 88.3636C159.729 87.6828 159.707 86.0903 158.6 85.4396L90.9826 45.6799Z" fill="#86B9FF"/>
<path d="M90.9826 41.9596C90.4544 41.649 89.8003 41.6448 89.2681 41.9485L32.66 74.2561C31.5232 74.9049 31.5069 76.5381 32.6305 77.2095L102.264 118.815C102.815 119.144 103.504 119.137 104.048 118.797L158.641 84.6433C159.729 83.9625 159.707 82.37 158.6 81.7193L90.9826 41.9596Z" fill="#599FFF"/>
<path d="M159.451 83.0963L102.906 119.366L103.611 122.784L159.539 87.5761L159.451 83.0963Z" fill="#86B9FF"/>
<path d="M31.8821 76.3141L104.013 119.366L103.308 122.784L31.7526 79.4408L31.8821 76.3141Z" fill="#86B9FF"/>
<path d="M127.193 118.389C126.9 122.563 123.337 122.784 121.592 122.373C121.312 122.697 120.87 123.453 121.336 123.89C121.802 124.327 123.212 124.072 123.858 123.89C125.155 123.384 129.218 121.576 135.101 118.389C140.782 116.153 142.258 112.897 142.287 111.548C142.343 108.505 142.422 101.573 142.287 98.1921C142.151 94.8108 137.722 89.9078 135.524 87.879C130.452 84.2441 118.567 77.4984 111.601 79.5948C104.636 81.6912 106.158 85.1587 107.79 86.6304C110.734 88.7813 117.491 93.5039 120.969 95.188C121.234 95.3164 121.491 95.4651 121.738 95.6314C127.495 99.5018 127.328 107.906 127.303 114.843C127.299 116.125 127.266 117.342 127.193 118.389Z" fill="url(#paint0_linear_517_2682)"/>
<ellipse cx="5.54483" cy="3.59891" rx="5.54483" ry="3.59891" transform="matrix(-1 0 0 1 121.332 80.9893)" fill="#1E1E1E"/>
<rect width="6.49185" height="32.3016" rx="3.24593" transform="matrix(-0.568491 -0.82269 -0.82269 0.568491 49.0176 69.4561)" fill="white"/>
<rect width="6.45153" height="32.3016" rx="3.22577" transform="matrix(-0.851565 -0.52425 -0.52425 0.851564 51.8398 89.4316)" fill="white"/>
<path d="M58.7081 94.5089C59.0456 93.7723 59.6943 93.2248 60.4772 93.016C62.5918 92.452 64.4708 94.4927 63.7345 96.5536L59.7451 107.72C59.4115 108.654 59.241 109.638 59.241 110.629L59.241 121.293C59.241 123.81 56.4046 125.284 54.3447 123.836C53.5899 123.306 53.1097 122.468 53.0339 121.548L52.311 112.782C52.1137 110.388 52.5354 107.984 53.5356 105.801L58.7081 94.5089Z" fill="white"/>
<path d="M30.0322 45.2983C39.1269 28.4189 60.1834 22.1082 77.063 31.2027C93.9424 40.2973 100.253 61.353 91.1591 78.2326C82.0646 95.1122 61.0084 101.424 44.1287 92.3296C27.249 83.235 20.9377 62.1781 30.0322 45.2983Z" fill="#99D0FF" stroke="#779AC7"/>
<ellipse cx="56.8891" cy="24.3362" rx="6.45941" ry="6.5354" fill="#FFCD6C"/>
<ellipse cx="80.6039" cy="29.2258" rx="6.45941" ry="6.5354" fill="#FFCD6C"/>
<ellipse cx="70.0314" cy="23.3527" rx="10.1252" ry="10.2443" fill="#FFCD6C"/>
<rect x="77.6172" y="85.002" width="6.81436" height="21.4035" rx="3.40718" transform="rotate(-39.5962 77.6172 85.002)" fill="white"/>
<g style="mix-blend-mode:screen">
<path d="M74.7385 35.5381C84.2732 40.6753 88.7917 50.7993 84.8309 58.1507C80.87 65.5022 69.9297 67.2972 60.395 62.1601C50.8603 57.0229 46.3418 46.8989 50.3026 39.5474C54.2635 32.196 65.2038 30.4009 74.7385 35.5381Z" fill="#3CA3FC"/>
</g>
<path d="M56.5649 57.5474C57.6039 57.7876 58.6645 57.1346 58.6676 56.0681C58.6724 54.4594 58.2263 52.8677 57.3606 51.4814C56.151 49.544 54.2213 48.1666 51.996 47.6521C49.7708 47.1375 47.4323 47.528 45.495 48.7377C44.1087 49.6033 43.0091 50.8376 42.3072 52.2851C41.8418 53.2447 42.508 54.2971 43.5471 54.5373C44.5862 54.7776 45.5973 54.0889 46.229 53.2295C46.5818 52.7494 47.0253 52.3354 47.5405 52.0137C48.609 51.3465 49.8987 51.1311 51.126 51.4149C52.3533 51.6987 53.4175 52.4584 54.0847 53.5269C54.4064 54.0421 54.623 54.6088 54.7293 55.1951C54.9196 56.2444 55.5258 57.3071 56.5649 57.5474Z" fill="#192A3D"/>
<path d="M76.932 61.0454C77.9711 61.2857 79.0317 60.6326 79.0348 59.5661C79.0396 57.9575 78.5934 56.3657 77.7278 54.9794C76.5182 53.0421 74.5885 51.6647 72.3632 51.1501C70.138 50.6356 67.7995 51.0261 65.8622 52.2357C64.4759 53.1014 63.3762 54.3357 62.6743 55.7832C62.209 56.7428 62.8752 57.7951 63.9143 58.0354C64.9534 58.2756 65.9645 57.5869 66.5961 56.7276C66.949 56.2475 67.3925 55.8334 67.9077 55.5117C68.9762 54.8446 70.2659 54.6292 71.4932 54.913C72.7204 55.1967 73.7847 55.9564 74.4519 57.0249C74.7736 57.5401 74.9902 58.1068 75.0965 58.6931C75.2868 59.7425 75.893 60.8052 76.932 61.0454Z" fill="#192A3D"/>
<path d="M67.8182 62.8638C69.1075 63.1104 70.096 64.1987 69.7109 65.1932C69.1301 66.6934 68.0339 67.9736 66.5275 68.8727C64.4223 70.1291 61.6885 70.5382 58.9274 70.01C56.1663 69.4818 53.6042 68.0595 51.8045 66.056C50.5168 64.6224 49.6949 62.9752 49.4108 61.3096C49.2224 60.2053 50.3765 59.527 51.6658 59.7736C52.9551 60.0203 53.8734 61.1193 54.2907 62.2055C54.5238 62.8123 54.8857 63.3986 55.3643 63.9315C56.3568 65.0364 57.7699 65.8208 59.2927 66.1122C60.8156 66.4035 62.3233 66.1779 63.4844 65.4849C64.0442 65.1508 64.5013 64.7212 64.838 64.2233C65.4405 63.3322 66.5289 62.6171 67.8182 62.8638Z" fill="#192A3D"/>
<path d="M33.4549 106.984L31.1806 110.701C30.1805 109.938 28.8658 108.409 27.9618 107.421C26.7713 106.12 24.8324 107.132 24.0083 107.956C22.4562 109.509 23.644 112.017 25.1089 113.652L25.3671 113.94C26.299 114.98 27.3546 115.912 28.5864 116.57C30.3894 117.533 32.6145 118.454 33.6152 117.979C35.0051 117.32 38.0649 112.22 39.0783 110.206L33.4549 106.984Z" fill="#CB6262"/>
<path d="M52.4172 116.435L52.4172 120.764C51.2932 120.198 49.8309 119.205 48.7599 118.401C47.3493 117.343 45.631 118.696 44.9734 119.658C43.735 121.47 45.3661 123.716 47.108 125.052L47.9919 125.73C48.7172 126.286 49.5106 126.75 50.3678 127.068C52.502 127.858 55.5772 128.775 56.2678 127.732C60.5622 121.249 58.8399 120.568 59.4634 118.401L52.4172 116.435Z" fill="#CB6262"/>
<defs>
<linearGradient id="paint0_linear_517_2682" x1="124.386" y1="79.1992" x2="124.386" y2="124.132" gradientUnits="userSpaceOnUse">
<stop stop-color="white"/>
<stop offset="1" stop-color="#999999"/>
</linearGradient>
</defs>
</svg>
