<svg width="21" height="21" viewBox="0 0 21 21" fill="none" xmlns="http://www.w3.org/2000/svg">
<g id="Telegram">
<path id="Vector" d="M17.3753 3.84375C17.1315 3.63705 16.7487 3.60748 16.3528 3.7664H16.3522C15.9359 3.93345 4.56734 8.80977 4.10453 9.00899C4.02036 9.03824 3.28521 9.31254 3.36093 9.92354C3.42853 10.4744 4.01938 10.7026 4.09153 10.7289L6.98177 11.7185C7.17352 12.3568 7.88039 14.7118 8.03672 15.2149C8.13422 15.5285 8.29315 15.9406 8.57167 16.0254C8.81607 16.1197 9.05917 16.0336 9.21647 15.9101L10.9835 14.2711L13.836 16.4957L13.904 16.5363C14.0977 16.6221 14.2832 16.665 14.4604 16.665C14.5972 16.665 14.7285 16.6394 14.8539 16.588C15.2813 16.4125 15.4523 16.0053 15.4701 15.9591L17.6008 4.88408C17.7309 4.29258 17.5501 3.99163 17.3753 3.84375ZM9.53075 12.1144L8.55575 14.7144L7.58074 11.4644L15.0558 5.93936L9.53075 12.1144Z" fill="white" fill-opacity="0.7"/>
</g>
</svg>
