<svg width="17" height="16" viewBox="0 0 17 16" fill="none" xmlns="http://www.w3.org/2000/svg">
<path d="M8.8571 1.33398C5.18376 1.33398 2.19043 4.32732 2.19043 8.00065C2.19043 11.674 5.18376 14.6673 8.8571 14.6673C12.5304 14.6673 15.5238 11.674 15.5238 8.00065C15.5238 4.32732 12.5304 1.33398 8.8571 1.33398ZM12.0438 6.46732L8.26376 10.2473C8.17043 10.3407 8.04376 10.394 7.91043 10.394C7.7771 10.394 7.65043 10.3407 7.5571 10.2473L5.67043 8.36065C5.4771 8.16732 5.4771 7.84732 5.67043 7.65398C5.86376 7.46065 6.18376 7.46065 6.3771 7.65398L7.91043 9.18732L11.3371 5.76065C11.5304 5.56732 11.8504 5.56732 12.0438 5.76065C12.2371 5.95398 12.2371 6.26732 12.0438 6.46732Z" fill="#78C47B"/>
</svg>
