<svg width="21" height="21" viewBox="0 0 21 21" fill="none" xmlns="http://www.w3.org/2000/svg">
<g clip-path="url(#clip0_517_3466)">
<path d="M1.07422 5.99589C3.74013 3.83615 7.06826 2.65998 10.4992 2.66506C14.0701 2.66506 17.3492 3.91256 19.9242 5.99589L18.3534 7.94006C16.1317 6.1405 13.3583 5.1606 10.4992 5.16506C7.52422 5.16506 4.79089 6.20506 2.64505 7.94006L1.07422 5.99589ZM3.69172 9.23756C5.61722 7.67755 8.02108 6.82801 10.4992 6.83172C13.0776 6.83172 15.4459 7.73256 17.3067 9.23672L15.7359 11.1817C14.2546 9.9819 12.4054 9.32862 10.4992 9.33172C8.51589 9.33172 6.69422 10.0251 5.26255 11.1817L3.69172 9.23672V9.23756ZM6.31005 12.4792C7.49492 11.5191 8.9742 10.9962 10.4992 10.9984C12.0859 10.9984 13.5434 11.5526 14.6884 12.4784L13.1176 14.4234C12.3769 13.8235 11.4523 13.4969 10.4992 13.4984C9.54612 13.4969 8.62155 13.8235 7.88089 14.4234L6.31005 12.4784V12.4792ZM8.92839 15.7209C9.37259 15.3607 9.9273 15.1644 10.4992 15.1651C11.0942 15.1651 11.6409 15.3734 12.0701 15.7201L10.4992 17.6651L8.92839 15.7201V15.7209Z" fill="#6ED5A3"/>
</g>
<defs>
<clipPath id="clip0_517_3466">
<rect width="20" height="20" fill="white" transform="translate(0.5 0.165039)"/>
</clipPath>
</defs>
</svg>
